<mxfile host="app.diagrams.net" agent="Mozilla/5.0 (Windows NT 10.0; Win64; x64) AppleWebKit/537.36 (KHTML, like Gecko) Chrome/135.0.0.0 Safari/537.36" version="26.2.14" pages="3">
  <diagram name="System Diagram" id="mtSnrj6schEjkRu2kLHf">
    <mxGraphModel dx="1224" dy="1102" grid="1" gridSize="10" guides="1" tooltips="1" connect="1" arrows="0" fold="1" page="1" pageScale="1" pageWidth="1169" pageHeight="827" math="0" shadow="0">
      <root>
        <mxCell id="0" />
        <mxCell id="1" parent="0" />
        <mxCell id="BQRr1PeUNsmQTGOYHVgu-46" value="" style="rounded=0;whiteSpace=wrap;html=1;" parent="1" vertex="1">
          <mxGeometry x="120" y="280" width="160" height="200" as="geometry" />
        </mxCell>
        <mxCell id="BQRr1PeUNsmQTGOYHVgu-18" value="" style="rounded=0;whiteSpace=wrap;html=1;" parent="1" vertex="1">
          <mxGeometry x="299" y="280" width="160" height="200" as="geometry" />
        </mxCell>
        <mxCell id="BQRr1PeUNsmQTGOYHVgu-1" value="" style="rounded=0;whiteSpace=wrap;html=1;" parent="1" vertex="1">
          <mxGeometry x="480" y="280" width="360" height="200" as="geometry" />
        </mxCell>
        <mxCell id="BQRr1PeUNsmQTGOYHVgu-2" value="&lt;h1 style=&quot;margin-top: 0px;&quot;&gt;VirtualBox Network&lt;/h1&gt;" style="text;html=1;whiteSpace=wrap;overflow=hidden;rounded=0;fontSize=8;verticalAlign=middle;" parent="1" vertex="1">
          <mxGeometry x="490" y="290" width="160" height="20" as="geometry" />
        </mxCell>
        <mxCell id="BQRr1PeUNsmQTGOYHVgu-3" value="10.0.0.0/16" style="text;html=1;align=left;verticalAlign=middle;whiteSpace=wrap;rounded=0;" parent="1" vertex="1">
          <mxGeometry x="490" y="310" width="80" height="30" as="geometry" />
        </mxCell>
        <mxCell id="BQRr1PeUNsmQTGOYHVgu-17" value="&lt;h1 style=&quot;margin-top: 0px;&quot;&gt;Host Network&lt;/h1&gt;" style="text;html=1;whiteSpace=wrap;overflow=hidden;rounded=0;fontSize=8;verticalAlign=middle;" parent="1" vertex="1">
          <mxGeometry x="309" y="290" width="110" height="20" as="geometry" />
        </mxCell>
        <mxCell id="BQRr1PeUNsmQTGOYHVgu-19" value="192.168.0.0/16" style="text;html=1;align=left;verticalAlign=middle;whiteSpace=wrap;rounded=0;" parent="1" vertex="1">
          <mxGeometry x="309" y="310" width="90" height="30" as="geometry" />
        </mxCell>
        <mxCell id="BQRr1PeUNsmQTGOYHVgu-20" value="Host&lt;div&gt;(Developer)&lt;/div&gt;" style="pointerEvents=1;shadow=0;dashed=0;html=1;strokeColor=none;fillColor=#000000;labelPosition=center;verticalLabelPosition=bottom;verticalAlign=top;align=center;outlineConnect=0;shape=mxgraph.veeam.laptop;aspect=fixed;" parent="1" vertex="1">
          <mxGeometry x="364" y="414" width="30" height="22.6" as="geometry" />
        </mxCell>
        <mxCell id="BQRr1PeUNsmQTGOYHVgu-28" style="edgeStyle=orthogonalEdgeStyle;rounded=0;orthogonalLoop=1;jettySize=auto;html=1;exitX=0;exitY=0.5;exitDx=0;exitDy=0;exitPerimeter=0;startArrow=classic;startFill=1;endArrow=classic;endFill=1;" parent="1" source="BQRr1PeUNsmQTGOYHVgu-22" target="BQRr1PeUNsmQTGOYHVgu-20" edge="1">
          <mxGeometry relative="1" as="geometry">
            <Array as="points">
              <mxPoint x="420" y="355" />
              <mxPoint x="420" y="425" />
            </Array>
          </mxGeometry>
        </mxCell>
        <mxCell id="BQRr1PeUNsmQTGOYHVgu-40" style="edgeStyle=orthogonalEdgeStyle;rounded=0;orthogonalLoop=1;jettySize=auto;html=1;exitX=1;exitY=0.5;exitDx=0;exitDy=0;exitPerimeter=0;startArrow=classic;startFill=1;endArrow=classic;endFill=1;" parent="1" source="BQRr1PeUNsmQTGOYHVgu-22" target="BQRr1PeUNsmQTGOYHVgu-14" edge="1">
          <mxGeometry relative="1" as="geometry" />
        </mxCell>
        <mxCell id="BQRr1PeUNsmQTGOYHVgu-22" value="Host NIC" style="sketch=0;points=[[0.5,0,0],[1,0.5,0],[0.5,1,0],[0,0.5,0],[0.145,0.145,0],[0.8555,0.145,0],[0.855,0.8555,0],[0.145,0.855,0]];verticalLabelPosition=bottom;html=1;verticalAlign=top;aspect=fixed;align=center;pointerEvents=1;shape=mxgraph.cisco19.rect;prIcon=router;fillColor=#000000;strokeColor=#FFFFFF;labelBackgroundColor=default;" parent="1" vertex="1">
          <mxGeometry x="455" y="340" width="30" height="30" as="geometry" />
        </mxCell>
        <mxCell id="BQRr1PeUNsmQTGOYHVgu-26" value="" style="rounded=0;whiteSpace=wrap;html=1;movable=1;resizable=1;rotatable=1;deletable=1;editable=1;locked=0;connectable=1;fillColor=#f8cecc;strokeColor=none;" parent="1" vertex="1">
          <mxGeometry x="496.75" y="380" width="242.5" height="90" as="geometry" />
        </mxCell>
        <mxCell id="BQRr1PeUNsmQTGOYHVgu-4" value="master" style="shadow=0;dashed=0;html=1;strokeColor=none;fillColor=#000000;labelPosition=center;verticalLabelPosition=bottom;verticalAlign=top;align=center;outlineConnect=0;shape=mxgraph.veeam.2d.virtual_machine;container=0;" parent="1" vertex="1">
          <mxGeometry x="520" y="410" width="30" height="30" as="geometry" />
        </mxCell>
        <mxCell id="BQRr1PeUNsmQTGOYHVgu-8" value="node01" style="shadow=0;dashed=0;html=1;strokeColor=none;fillColor=#000000;labelPosition=center;verticalLabelPosition=bottom;verticalAlign=top;align=center;outlineConnect=0;shape=mxgraph.veeam.2d.virtual_machine;container=0;" parent="1" vertex="1">
          <mxGeometry x="603" y="410" width="30" height="30" as="geometry" />
        </mxCell>
        <mxCell id="BQRr1PeUNsmQTGOYHVgu-11" value="node02" style="shadow=0;dashed=0;html=1;strokeColor=none;fillColor=#000000;labelPosition=center;verticalLabelPosition=bottom;verticalAlign=top;align=center;outlineConnect=0;shape=mxgraph.veeam.2d.virtual_machine;container=0;" parent="1" vertex="1">
          <mxGeometry x="687" y="410" width="30" height="30" as="geometry" />
        </mxCell>
        <mxCell id="BQRr1PeUNsmQTGOYHVgu-14" value="nexkins" style="shadow=0;dashed=0;html=1;strokeColor=none;fillColor=#000000;labelPosition=center;verticalLabelPosition=bottom;verticalAlign=top;align=center;outlineConnect=0;shape=mxgraph.veeam.2d.virtual_machine;container=0;" parent="1" vertex="1">
          <mxGeometry x="770" y="410" width="30" height="30" as="geometry" />
        </mxCell>
        <mxCell id="BQRr1PeUNsmQTGOYHVgu-39" style="edgeStyle=orthogonalEdgeStyle;rounded=0;orthogonalLoop=1;jettySize=auto;html=1;exitX=1;exitY=0;exitDx=0;exitDy=0;entryX=1;entryY=0.5;entryDx=0;entryDy=0;entryPerimeter=0;startArrow=classic;startFill=1;endArrow=classic;endFill=1;" parent="1" source="BQRr1PeUNsmQTGOYHVgu-27" target="BQRr1PeUNsmQTGOYHVgu-22" edge="1">
          <mxGeometry relative="1" as="geometry" />
        </mxCell>
        <mxCell id="BQRr1PeUNsmQTGOYHVgu-27" value="Kubernetes Cluster" style="text;html=1;align=left;verticalAlign=middle;whiteSpace=wrap;rounded=0;fontStyle=1" parent="1" vertex="1">
          <mxGeometry x="500" y="380" width="120" height="30" as="geometry" />
        </mxCell>
        <mxCell id="BQRr1PeUNsmQTGOYHVgu-41" style="edgeStyle=orthogonalEdgeStyle;rounded=0;orthogonalLoop=1;jettySize=auto;html=1;exitX=0.87;exitY=0.5;exitDx=0;exitDy=0;exitPerimeter=0;startArrow=classic;startFill=1;endArrow=classic;endFill=1;" parent="1" source="BQRr1PeUNsmQTGOYHVgu-23" target="BQRr1PeUNsmQTGOYHVgu-20" edge="1">
          <mxGeometry relative="1" as="geometry">
            <Array as="points">
              <mxPoint x="340" y="355" />
              <mxPoint x="340" y="425" />
            </Array>
          </mxGeometry>
        </mxCell>
        <mxCell id="BQRr1PeUNsmQTGOYHVgu-42" style="edgeStyle=orthogonalEdgeStyle;rounded=0;orthogonalLoop=1;jettySize=auto;html=1;exitX=0.13;exitY=0.5;exitDx=0;exitDy=0;exitPerimeter=0;startArrow=classic;startFill=1;endArrow=classic;endFill=1;" parent="1" source="BQRr1PeUNsmQTGOYHVgu-23" target="BQRr1PeUNsmQTGOYHVgu-37" edge="1">
          <mxGeometry relative="1" as="geometry">
            <Array as="points">
              <mxPoint x="250" y="355" />
              <mxPoint x="250" y="422" />
            </Array>
          </mxGeometry>
        </mxCell>
        <mxCell id="BQRr1PeUNsmQTGOYHVgu-23" value="Iptime" style="sketch=0;aspect=fixed;pointerEvents=1;shadow=0;dashed=0;html=1;strokeColor=none;labelPosition=center;verticalLabelPosition=bottom;verticalAlign=top;align=center;fillColor=#000000;shape=mxgraph.mscae.enterprise.router;labelBackgroundColor=default;" parent="1" vertex="1">
          <mxGeometry x="275" y="343.3" width="30" height="23.4" as="geometry" />
        </mxCell>
        <mxCell id="BQRr1PeUNsmQTGOYHVgu-37" value="GitHub" style="dashed=0;outlineConnect=0;html=1;align=center;labelPosition=center;verticalLabelPosition=bottom;verticalAlign=top;shape=mxgraph.weblogos.github" parent="1" vertex="1">
          <mxGeometry x="185" y="406.6" width="30" height="30" as="geometry" />
        </mxCell>
        <mxCell id="BQRr1PeUNsmQTGOYHVgu-45" value="&lt;h1 style=&quot;margin-top: 0px;&quot;&gt;External Network&lt;/h1&gt;" style="text;html=1;whiteSpace=wrap;overflow=hidden;rounded=0;fontSize=8;verticalAlign=middle;" parent="1" vertex="1">
          <mxGeometry x="130" y="290" width="140" height="20" as="geometry" />
        </mxCell>
      </root>
    </mxGraphModel>
  </diagram>
  <diagram id="hZXAEeiC0Xw2q1QBfVMc" name="CICD Flow">
    <mxGraphModel dx="652" dy="634" grid="1" gridSize="10" guides="1" tooltips="1" connect="1" arrows="1" fold="1" page="1" pageScale="1" pageWidth="1169" pageHeight="827" math="0" shadow="0">
      <root>
        <mxCell id="0" />
        <mxCell id="1" parent="0" />
        <mxCell id="AYibm0jYcgZixLo-WBq4-3" style="edgeStyle=orthogonalEdgeStyle;rounded=0;orthogonalLoop=1;jettySize=auto;html=1;" edge="1" parent="1" source="Fiuram2BfcJq_FmW0JqA-1" target="AYibm0jYcgZixLo-WBq4-1">
          <mxGeometry relative="1" as="geometry" />
        </mxCell>
        <mxCell id="AYibm0jYcgZixLo-WBq4-4" style="edgeStyle=orthogonalEdgeStyle;rounded=0;orthogonalLoop=1;jettySize=auto;html=1;" edge="1" parent="1" source="Fiuram2BfcJq_FmW0JqA-1" target="AYibm0jYcgZixLo-WBq4-2">
          <mxGeometry relative="1" as="geometry">
            <Array as="points">
              <mxPoint x="290" y="301" />
              <mxPoint x="290" y="430" />
            </Array>
          </mxGeometry>
        </mxCell>
        <mxCell id="Fiuram2BfcJq_FmW0JqA-1" value="Developer" style="pointerEvents=1;shadow=0;dashed=0;strokeColor=none;fillColor=#000000;labelPosition=center;verticalLabelPosition=bottom;verticalAlign=top;align=center;outlineConnect=0;shape=mxgraph.veeam.laptop;aspect=fixed;" vertex="1" parent="1">
          <mxGeometry x="220" y="290" width="30" height="22.6" as="geometry" />
        </mxCell>
        <mxCell id="AYibm0jYcgZixLo-WBq4-1" value="Source&#xa;Repository" style="sketch=0;outlineConnect=0;fontColor=#232F3E;gradientColor=none;fillColor=#232F3D;strokeColor=none;dashed=0;verticalLabelPosition=bottom;verticalAlign=top;align=center;fontSize=12;fontStyle=0;aspect=fixed;pointerEvents=1;shape=mxgraph.aws4.git_repository;" vertex="1" parent="1">
          <mxGeometry x="330" y="286.3" width="23.08" height="30" as="geometry" />
        </mxCell>
        <mxCell id="AYibm0jYcgZixLo-WBq4-2" value="manifest&#xa;Repository" style="sketch=0;outlineConnect=0;fontColor=#232F3E;gradientColor=none;fillColor=#232F3D;strokeColor=none;dashed=0;verticalLabelPosition=bottom;verticalAlign=top;align=center;fontSize=12;fontStyle=0;aspect=fixed;pointerEvents=1;shape=mxgraph.aws4.git_repository;" vertex="1" parent="1">
          <mxGeometry x="330" y="419.375" width="23.08" height="30" as="geometry" />
        </mxCell>
        <mxCell id="AYibm0jYcgZixLo-WBq4-6" style="edgeStyle=orthogonalEdgeStyle;rounded=0;orthogonalLoop=1;jettySize=auto;html=1;" edge="1" parent="1">
          <mxGeometry relative="1" as="geometry">
            <mxPoint x="460" y="299.99555555555554" as="sourcePoint" />
            <mxPoint x="360.0000000000001" y="299.99555555555554" as="targetPoint" />
          </mxGeometry>
        </mxCell>
        <mxCell id="AYibm0jYcgZixLo-WBq4-13" style="edgeStyle=orthogonalEdgeStyle;rounded=0;orthogonalLoop=1;jettySize=auto;html=1;exitX=1;exitY=0.5;exitDx=0;exitDy=0;entryX=0;entryY=0.5;entryDx=0;entryDy=0;" edge="1" parent="1" source="AYibm0jYcgZixLo-WBq4-5" target="AYibm0jYcgZixLo-WBq4-12">
          <mxGeometry relative="1" as="geometry" />
        </mxCell>
        <mxCell id="AYibm0jYcgZixLo-WBq4-16" style="edgeStyle=orthogonalEdgeStyle;rounded=0;orthogonalLoop=1;jettySize=auto;html=1;" edge="1" parent="1" source="AYibm0jYcgZixLo-WBq4-5" target="AYibm0jYcgZixLo-WBq4-2">
          <mxGeometry relative="1" as="geometry">
            <Array as="points">
              <mxPoint x="510" y="301" />
              <mxPoint x="510" y="375" />
              <mxPoint x="345" y="375" />
            </Array>
          </mxGeometry>
        </mxCell>
        <mxCell id="AYibm0jYcgZixLo-WBq4-5" value="Jenkins" style="shape=image;imageAspect=0;aspect=fixed;verticalLabelPosition=bottom;verticalAlign=top;image=https://blog.kakaocdn.net/dn/WNjHi/btsJKgSJRnQ/jj6xKqJr0m09Cl2BWGz2tK/img.png;" vertex="1" parent="1">
          <mxGeometry x="455" y="286.3" width="21.75" height="30" as="geometry" />
        </mxCell>
        <mxCell id="AYibm0jYcgZixLo-WBq4-10" value="Poll SCM" style="text;html=1;align=center;verticalAlign=middle;whiteSpace=wrap;rounded=0;fontSize=10;labelBackgroundColor=default;" vertex="1" parent="1">
          <mxGeometry x="390" y="286.3" width="60" height="30" as="geometry" />
        </mxCell>
        <mxCell id="AYibm0jYcgZixLo-WBq4-12" value="Nexus" style="shape=image;imageAspect=0;aspect=fixed;verticalLabelPosition=bottom;verticalAlign=top;image=https://velog.velcdn.com/images/cptbluebear/post/8ddca1e0-f649-4959-8995-93f14bf2877b/image.png;" vertex="1" parent="1">
          <mxGeometry x="584" y="286.3" width="30" height="30" as="geometry" />
        </mxCell>
        <mxCell id="AYibm0jYcgZixLo-WBq4-18" style="edgeStyle=orthogonalEdgeStyle;rounded=0;orthogonalLoop=1;jettySize=auto;html=1;" edge="1" parent="1" source="AYibm0jYcgZixLo-WBq4-15" target="AYibm0jYcgZixLo-WBq4-2">
          <mxGeometry relative="1" as="geometry" />
        </mxCell>
        <mxCell id="AYibm0jYcgZixLo-WBq4-19" style="edgeStyle=orthogonalEdgeStyle;rounded=0;orthogonalLoop=1;jettySize=auto;html=1;" edge="1" parent="1" source="AYibm0jYcgZixLo-WBq4-15" target="AYibm0jYcgZixLo-WBq4-17">
          <mxGeometry relative="1" as="geometry" />
        </mxCell>
        <mxCell id="AYibm0jYcgZixLo-WBq4-15" value="ArgoCD" style="shape=image;imageAspect=0;aspect=fixed;verticalLabelPosition=bottom;verticalAlign=top;image=https://blog.kakaocdn.net/dn/Jt42K/btsGGXgumhN/vQpBw3O3i5Y3kdd8695QPK/img.png;" vertex="1" parent="1">
          <mxGeometry x="450.875" y="419.375" width="30" height="30" as="geometry" />
        </mxCell>
        <mxCell id="AYibm0jYcgZixLo-WBq4-17" value="Kubernetes" style="shape=image;imageAspect=0;aspect=fixed;verticalLabelPosition=bottom;verticalAlign=top;image=https://static-00.iconduck.com/assets.00/kubernetes-icon-2048x1995-r1q3f8n7.png;" vertex="1" parent="1">
          <mxGeometry x="584" y="419.75" width="30" height="29.25" as="geometry" />
        </mxCell>
        <mxCell id="AYibm0jYcgZixLo-WBq4-20" value="Build" style="text;html=1;align=center;verticalAlign=middle;whiteSpace=wrap;rounded=0;fontSize=10;labelBackgroundColor=default;" vertex="1" parent="1">
          <mxGeometry x="510" y="286.3" width="60" height="30" as="geometry" />
        </mxCell>
        <mxCell id="vYFnaJknNNEhpBE6UQs0-1" value="Deploy" style="text;html=1;align=center;verticalAlign=middle;whiteSpace=wrap;rounded=0;fontSize=10;labelBackgroundColor=default;" vertex="1" parent="1">
          <mxGeometry x="500" y="420" width="60" height="30" as="geometry" />
        </mxCell>
        <mxCell id="vYFnaJknNNEhpBE6UQs0-2" value="Image Update" style="text;html=1;align=center;verticalAlign=middle;whiteSpace=wrap;rounded=0;fontSize=10;labelBackgroundColor=default;" vertex="1" parent="1">
          <mxGeometry x="390" y="360" width="60" height="30" as="geometry" />
        </mxCell>
      </root>
    </mxGraphModel>
  </diagram>
  <diagram id="cLPqqf2eqWwvcLRIKWsj" name="페이지-3">
    <mxGraphModel dx="1224" dy="1102" grid="1" gridSize="10" guides="1" tooltips="1" connect="1" arrows="1" fold="1" page="1" pageScale="1" pageWidth="827" pageHeight="1169" math="0" shadow="0">
      <root>
        <mxCell id="0" />
        <mxCell id="1" parent="0" />
      </root>
    </mxGraphModel>
  </diagram>
</mxfile>
